<svg width="96" height="96" viewBox="0 0 96 96" fill="none" xmlns="http://www.w3.org/2000/svg">
<rect width="96" height="96" rx="8" fill="#D3E7F6"/>
<path fill-rule="evenodd" clip-rule="evenodd" d="M57 41V55C57 56.1 56.1 57 55 57H41C39.9 57 39 56.1 39 55V41C39 39.9 39.9 39 41 39H55C56.1 39 57 39.9 57 41ZM47 52.51L44.9 49.98C44.69 49.73 44.31 49.74 44.12 50L41.63 53.2C41.37 53.53 41.6 54.01 42.02 54.01H54.01C54.42 54.01 54.66 53.54 54.41 53.21L50.9 48.53C50.7 48.26 50.3 48.26 50.1 48.52L47 52.51Z" fill="#64B3EC"/>
</svg>
