<svg width="31" height="30" viewBox="0 0 31 30" fill="none" xmlns="http://www.w3.org/2000/svg">
<g clip-path="url(#clip0_701_3457)">
<path d="M15.5 8.75C14.8125 8.75 14.25 9.3125 14.25 10V13.75H10.5C9.8125 13.75 9.25 14.3125 9.25 15C9.25 15.6875 9.8125 16.25 10.5 16.25H14.25V20C14.25 20.6875 14.8125 21.25 15.5 21.25C16.1875 21.25 16.75 20.6875 16.75 20V16.25H20.5C21.1875 16.25 21.75 15.6875 21.75 15C21.75 14.3125 21.1875 13.75 20.5 13.75H16.75V10C16.75 9.3125 16.1875 8.75 15.5 8.75ZM15.5 2.5C8.6 2.5 3 8.1 3 15C3 21.9 8.6 27.5 15.5 27.5C22.4 27.5 28 21.9 28 15C28 8.1 22.4 2.5 15.5 2.5ZM15.5 25C9.9875 25 5.5 20.5125 5.5 15C5.5 9.4875 9.9875 5 15.5 5C21.0125 5 25.5 9.4875 25.5 15C25.5 20.5125 21.0125 25 15.5 25Z" fill="#B6DBF5"/>
</g>
<defs>
<clipPath id="clip0_701_3457">
<rect width="30" height="30" fill="white" transform="translate(0.5)"/>
</clipPath>
</defs>
</svg>
