<svg width="14" height="17" viewBox="0 0 14 17" fill="none" xmlns="http://www.w3.org/2000/svg">
<path d="M7 8.00012C8.09902 8.00012 9.05068 7.60594 9.82825 6.82821C10.6058 6.05061 11 5.09917 11 4C11 2.9012 10.6058 1.94963 9.82813 1.17178C9.05043 0.394306 8.09889 0.00012207 7 0.00012207C5.90086 0.00012207 4.94945 0.394306 4.17187 1.1719C3.3943 1.9495 3 2.90107 3 4C3 5.09917 3.3943 6.05074 4.172 6.82834C4.9497 7.60581 5.90124 8.00012 7 8.00012Z" fill="#64B3EC"/>
<path d="M13.9661 12.9776C13.9434 12.6384 13.8976 12.2683 13.8301 11.8776C13.762 11.4839 13.6743 11.1117 13.5693 10.7716C13.4609 10.42 13.3134 10.0728 13.1311 9.74009C12.9419 9.39475 12.7196 9.09404 12.4702 8.84659C12.2094 8.58773 11.8902 8.37959 11.5209 8.22778C11.153 8.07676 10.7452 8.00025 10.3091 8.00025C10.1378 8.00025 9.97209 8.07317 9.65216 8.28927C9.45526 8.4225 9.22494 8.57657 8.96787 8.74698C8.74805 8.89229 8.45026 9.02843 8.08245 9.15169C7.72359 9.27216 7.35924 9.33325 6.99962 9.33325C6.63999 9.33325 6.27576 9.27216 5.91653 9.15169C5.5491 9.02856 5.25131 8.89242 5.03175 8.74711C4.77711 8.57829 4.54666 8.42422 4.34682 8.28914C4.02727 8.07304 3.86148 8.00012 3.69018 8.00012C3.25387 8.00012 2.84624 8.07676 2.47843 8.22791C2.10946 8.37946 1.79004 8.58759 1.529 8.84673C1.27973 9.09431 1.05736 9.39488 0.868391 9.74009C0.686212 10.0728 0.538727 10.4199 0.430163 10.7717C0.32531 11.1119 0.237614 11.4839 0.169505 11.8776C0.102036 12.2678 0.0562028 12.638 0.0335425 12.978C0.0112662 13.3111 0 13.6569 0 14.0061C0 14.9148 0.278453 15.6505 0.827551 16.1931C1.36986 16.7285 2.08744 17.0001 2.96006 17.0001H11.0399C11.9126 17.0001 12.6299 16.7286 13.1723 16.1931C13.7215 15.6509 14 14.9151 14 14.0059C13.9999 13.6551 13.9885 13.3091 13.9661 12.9776Z" fill="#64B3EC"/>
</svg>
