<svg width="6" height="11" viewBox="0 0 6 11" fill="none" xmlns="http://www.w3.org/2000/svg">
<path d="M5.16335 10.2816C5.06628 10.2822 4.97006 10.2636 4.8802 10.2269C4.79034 10.1902 4.70861 10.1361 4.6397 10.0677L0.21447 5.6425C0.0771033 5.50431 0 5.31738 0 5.12254C0 4.92769 0.0771033 4.74076 0.21447 4.60257L4.6397 0.177346C4.78079 0.056518 4.96228 -0.00661968 5.1479 0.000550042C5.33352 0.00771976 5.5096 0.0846685 5.64095 0.21602C5.7723 0.347371 5.84925 0.523451 5.85642 0.709071C5.86359 0.894692 5.80045 1.07618 5.67962 1.21727L1.77805 5.11885L5.67962 9.02042C5.78319 9.12314 5.85397 9.25426 5.88302 9.39721C5.91207 9.54015 5.89808 9.6885 5.84282 9.82349C5.78756 9.95849 5.69351 10.0741 5.57256 10.1556C5.45162 10.2372 5.30921 10.281 5.16335 10.2816Z" fill="white"/>
</svg>
