<svg width="30" height="30" viewBox="0 0 30 30" fill="none" xmlns="http://www.w3.org/2000/svg">
<rect x="0.25" y="0.25" width="29.5" height="29.5" rx="4.75" stroke="white" stroke-width="0.5"/>
<path d="M17.1633 20.2816C17.0663 20.2822 16.9701 20.2636 16.8802 20.2269C16.7903 20.1902 16.7086 20.1361 16.6397 20.0677L12.2145 15.6425C12.0771 15.5043 12 15.3174 12 15.1225C12 14.9277 12.0771 14.7408 12.2145 14.6026L16.6397 10.1773C16.7808 10.0565 16.9623 9.99338 17.1479 10.0006C17.3335 10.0077 17.5096 10.0847 17.6409 10.216C17.7723 10.3474 17.8493 10.5235 17.8564 10.7091C17.8636 10.8947 17.8005 11.0762 17.6796 11.2173L13.778 15.1188L17.6796 19.0204C17.7832 19.1231 17.854 19.2543 17.883 19.3972C17.9121 19.5402 17.8981 19.6885 17.8428 19.8235C17.7876 19.9585 17.6935 20.0741 17.5726 20.1556C17.4516 20.2372 17.3092 20.281 17.1633 20.2816Z" fill="white"/>
</svg>
