<svg width="22" height="22" viewBox="0 0 22 22" fill="none" xmlns="http://www.w3.org/2000/svg">
<rect x="0.25" y="0.25" width="21.5" height="21.5" rx="4.75" stroke="#26777E" stroke-width="0.5"/>
<path d="M8.24565 7.61546C8.12105 7.61517 7.99916 7.65193 7.89549 7.72103C7.79182 7.79016 7.711 7.88853 7.66334 8.00366C7.61564 8.11879 7.60327 8.2455 7.62769 8.36769C7.65215 8.48988 7.71236 8.60205 7.80066 8.68997L13.1412 14.0311C13.1996 14.0896 13.269 14.1359 13.3453 14.1676C13.4217 14.1992 13.5035 14.2155 13.5861 14.2155C13.6688 14.2155 13.7506 14.1992 13.827 14.1676C13.9033 14.1359 13.9727 14.0896 14.0311 14.0311C14.0896 13.9727 14.1359 13.9033 14.1676 13.8269C14.1992 13.7506 14.2155 13.6687 14.2155 13.5861C14.2155 13.5034 14.1992 13.4216 14.1676 13.3452C14.1359 13.2689 14.0896 13.1995 14.0311 13.141L8.69063 7.79986C8.63234 7.74121 8.563 7.69472 8.4866 7.66305C8.41024 7.63139 8.32832 7.61521 8.24565 7.61546Z" fill="#26777E"/>
<path d="M13.5853 7.61546C13.5027 7.61535 13.4208 7.63161 13.3444 7.66327C13.268 7.69489 13.1987 7.74135 13.1403 7.79986L7.79979 13.141C7.74136 13.1995 7.69501 13.2689 7.66339 13.3452C7.63177 13.4216 7.61548 13.5034 7.61548 13.5861C7.61548 13.6687 7.63177 13.7506 7.66339 13.8269C7.69501 13.9033 7.74136 13.9727 7.79979 14.0311C7.85826 14.0896 7.92763 14.1359 8.00396 14.1676C8.08032 14.1992 8.16217 14.2155 8.24481 14.2155C8.32745 14.2155 8.40926 14.1992 8.48563 14.1676C8.56199 14.1359 8.63136 14.0896 8.68979 14.0311L14.0303 8.68997C14.1186 8.60204 14.1788 8.48988 14.2033 8.36769C14.2277 8.2455 14.2153 8.11879 14.1676 8.00366C14.1199 7.88853 14.0392 7.79016 13.9355 7.72103C13.8318 7.65193 13.7099 7.61517 13.5853 7.61546Z" fill="#26777E"/>
</svg>
