<svg width="34" height="34" viewBox="0 0 34 34" fill="none" xmlns="http://www.w3.org/2000/svg">
<g clip-path="url(#clip0_710_3472)">
<path d="M20.5328 13.4619C20.1469 13.07 19.5105 13.0651 19.1186 13.451L16.981 15.5559L14.8761 13.4183C14.4902 13.0264 13.8538 13.0215 13.4619 13.4074C13.07 13.7933 13.0651 14.4296 13.451 14.8215L15.5559 16.9592L13.4183 19.0641C13.0264 19.45 13.0215 20.0863 13.4074 20.4782C13.7933 20.8701 14.4297 20.875 14.8216 20.4891L16.9592 18.3842L19.0641 20.5218C19.45 20.9137 20.0864 20.9186 20.4783 20.5327C20.8702 20.1468 20.8751 19.5105 20.4892 19.1186L18.3843 16.981L20.5219 14.876C20.9138 14.4902 20.9187 13.8538 20.5328 13.4619ZM24.0955 9.9537C20.2224 6.0205 13.8869 5.97166 9.95374 9.84469C6.02054 13.7177 5.9717 20.0532 9.84472 23.9864C13.7177 27.9196 20.0532 27.9684 23.9864 24.0954C27.9196 20.2224 27.9685 13.8869 24.0955 9.9537ZM11.2698 22.5831C8.17559 19.4408 8.21472 14.364 11.357 11.2698C14.4993 8.17555 19.5762 8.21469 22.6704 11.357C25.7646 14.4993 25.7255 19.5761 22.5832 22.6703C19.4409 25.7646 14.364 25.7254 11.2698 22.5831Z" fill="#25617B"/>
</g>
<defs>
<clipPath id="clip0_710_3472">
<rect width="24" height="24" fill="white" transform="translate(17.1008) rotate(45.4417)"/>
</clipPath>
</defs>
</svg>
