<svg width="17" height="17" viewBox="0 0 17 17" fill="none" xmlns="http://www.w3.org/2000/svg">
<path d="M0.456654 7.3943C0.457043 7.39391 0.457434 7.39352 0.457823 7.39314L7.39318 0.45874C7.6888 0.163025 8.08183 0.00012207 8.49989 0.00012207C8.91796 0.00012207 9.31099 0.162895 9.60673 0.458611L16.5385 7.3895C16.5408 7.39184 16.5431 7.3943 16.5455 7.39664C17.1525 8.00713 17.1515 8.99765 16.5425 9.60659C16.2643 9.88493 15.8968 10.0461 15.5039 10.063C15.4879 10.0646 15.4718 10.0653 15.4556 10.0653H15.1792V15.1686C15.1792 16.1785 14.3575 17.0001 13.3473 17.0001H10.6339C10.3589 17.0001 10.1358 16.7772 10.1358 16.5021V12.5011C10.1358 12.0403 9.76096 11.6654 9.30009 11.6654H7.69969C7.23882 11.6654 6.86395 12.0403 6.86395 12.5011V16.5021C6.86395 16.7772 6.64098 17.0001 6.36586 17.0001H3.65252C2.64232 17.0001 1.82059 16.1785 1.82059 15.1686V10.0653H1.56427C1.14634 10.0653 0.753307 9.90257 0.457434 9.60685C-0.152218 8.99687 -0.152477 8.00467 0.456654 7.3943Z" fill="#64B3EC"/>
</svg>
