<svg width="5" height="8" viewBox="0 0 5 8" fill="none" xmlns="http://www.w3.org/2000/svg">
<path d="M0.588092 0.000137755C0.473453 -0.00246282 0.360877 0.0318128 0.266015 0.0982521C0.171152 0.164691 0.098717 0.260011 0.05878 0.370872C0.0188431 0.481734 0.0133888 0.602658 0.0431751 0.716865C0.0729615 0.831071 0.136508 0.932823 0.224981 1.00806L3.60072 3.9908L0.224981 6.97249C0.16378 7.01889 0.112526 7.07778 0.0744277 7.14555C0.0363297 7.21332 0.0122089 7.2885 0.00357571 7.36633C-0.00505751 7.44416 0.00198297 7.52297 0.0242562 7.59787C0.0465294 7.67276 0.0835553 7.74212 0.133016 7.80158C0.182476 7.86103 0.243305 7.90925 0.311694 7.94333C0.380082 7.97741 0.454557 7.99656 0.530453 7.99958C0.60635 8.0026 0.682033 7.98947 0.752764 7.96092C0.823496 7.93238 0.887751 7.88908 0.941505 7.83373L4.80642 4.42309C4.86712 4.36967 4.91585 4.30337 4.94927 4.22864C4.98269 4.15391 5 4.07257 5 3.99027C5 3.90798 4.98269 3.82664 4.94927 3.75191C4.91585 3.67718 4.86712 3.61081 4.80642 3.55739L0.941505 0.14347C0.843872 0.0540263 0.718643 0.00317536 0.588092 6.49802e-06V0.000137755Z" fill="#1D5C61"/>
</svg>
