<svg width="17" height="17" viewBox="0 0 17 17" fill="none" xmlns="http://www.w3.org/2000/svg">
<path d="M8.48517 13.989C9.56782 13.989 10.6261 13.668 11.5263 13.0665C12.4265 12.465 13.1281 11.6101 13.5424 10.6099C13.9567 9.60964 14.0651 8.50901 13.8539 7.44717C13.6427 6.38533 13.1214 5.40997 12.3558 4.64442C11.5903 3.87888 10.6149 3.35753 9.55309 3.14632C8.49125 2.93511 7.39062 3.04351 6.39039 3.45782C5.39015 3.87213 4.53524 4.57374 3.93376 5.47392C3.33227 6.37411 3.01123 7.43244 3.01123 8.51508C3.01342 9.96619 3.59084 11.3572 4.61693 12.3833C5.64302 13.4094 7.03406 13.9868 8.48517 13.989ZM7.87696 6.69044C7.87696 6.52913 7.94104 6.37442 8.0551 6.26036C8.16916 6.1463 8.32386 6.08222 8.48517 6.08222C8.64648 6.08222 8.80118 6.1463 8.91525 6.26036C9.02931 6.37442 9.09339 6.52913 9.09339 6.69044V8.25963L10.2064 9.37267C10.3202 9.48736 10.3839 9.64245 10.3835 9.80398C10.3832 9.96552 10.3189 10.1203 10.2047 10.2346C10.0904 10.3488 9.93561 10.4131 9.77407 10.4134C9.61254 10.4138 9.45745 10.3501 9.34276 10.2363L8.05334 8.94692C7.94175 8.83065 7.87868 8.67622 7.87696 8.51508V6.69044Z" fill="#64B3EC"/>
<path d="M8.485 0.000135343C8.32369 0.000135343 8.16899 0.064215 8.05493 0.178278C7.94087 0.29234 7.87679 0.447042 7.87679 0.608351C7.87679 0.76966 7.94087 0.924362 8.05493 1.03842C8.16899 1.15249 8.32369 1.21657 8.485 1.21657C10.1877 1.20953 11.8396 1.79554 13.1573 2.87396C14.4749 3.95238 15.3759 5.45592 15.7056 7.12637C16.0353 8.79682 15.7731 10.5299 14.964 12.0281C14.1549 13.5263 12.8495 14.696 11.2718 15.3364C9.69415 15.9768 7.94274 16.0479 6.31837 15.5375C4.69399 15.0271 3.298 13.9671 2.37014 12.5394C1.44227 11.1118 1.04043 9.40561 1.23362 7.71393C1.42682 6.02225 2.20299 4.45062 3.42884 3.26893L3.3876 3.5835C3.36663 3.74347 3.41007 3.90522 3.50836 4.03316C3.60665 4.16111 3.75173 4.24477 3.9117 4.26574C4.07167 4.28671 4.23342 4.24327 4.36137 4.14498C4.48931 4.04669 4.57297 3.90161 4.59394 3.74164L4.83066 1.93244C4.84514 1.77363 4.79918 1.6152 4.70195 1.4888C4.60473 1.36239 4.4634 1.27732 4.30619 1.25057L2.49699 1.01403C2.4167 1.00126 2.33467 1.00472 2.25574 1.0242C2.1768 1.04368 2.10258 1.07879 2.03745 1.12744C1.97232 1.1761 1.9176 1.23733 1.87654 1.30749C1.83547 1.37766 1.80889 1.45535 1.79837 1.53596C1.78784 1.61658 1.79359 1.69849 1.81526 1.77685C1.83694 1.8552 1.8741 1.92842 1.92456 1.99217C1.97501 2.05592 2.03774 2.1089 2.10903 2.14799C2.18031 2.18708 2.25871 2.21149 2.33959 2.21976L2.71832 2.26939C1.26634 3.61673 0.330506 5.42886 0.0724556 7.39277C-0.185595 9.35669 0.250346 11.3491 1.30498 13.0258C2.35961 14.7025 3.96671 15.9582 5.84869 16.576C7.73066 17.1939 9.76932 17.1351 11.6125 16.4097C13.4558 15.6844 14.9878 14.3381 15.944 12.6034C16.9002 10.8687 17.2206 8.85451 16.8497 6.90873C16.4789 4.96296 15.4401 3.2078 13.9129 1.94642C12.3856 0.685032 10.4658 -0.00336358 8.485 0.000135343Z" fill="#64B3EC"/>
</svg>
