<svg width="17" height="17" viewBox="0 0 17 17" fill="none" xmlns="http://www.w3.org/2000/svg">
<g clip-path="url(#clip0_408_16235)">
<path d="M13.4584 5.66667H3.54169C2.36585 5.66667 1.41669 6.61583 1.41669 7.79167V10.625C1.41669 11.4042 2.05419 12.0417 2.83335 12.0417H4.25002V13.4583C4.25002 14.2375 4.88752 14.875 5.66669 14.875H11.3334C12.1125 14.875 12.75 14.2375 12.75 13.4583V12.0417H14.1667C14.9459 12.0417 15.5834 11.4042 15.5834 10.625V7.79167C15.5834 6.61583 14.6342 5.66667 13.4584 5.66667ZM10.625 13.4583H6.37502C5.98544 13.4583 5.66669 13.1396 5.66669 12.75V9.91667H11.3334V12.75C11.3334 13.1396 11.0146 13.4583 10.625 13.4583ZM13.4584 8.5C13.0688 8.5 12.75 8.18125 12.75 7.79167C12.75 7.40208 13.0688 7.08333 13.4584 7.08333C13.8479 7.08333 14.1667 7.40208 14.1667 7.79167C14.1667 8.18125 13.8479 8.5 13.4584 8.5ZM12.0417 2.125H4.95835C4.56877 2.125 4.25002 2.44375 4.25002 2.83333V4.25C4.25002 4.63958 4.56877 4.95833 4.95835 4.95833H12.0417C12.4313 4.95833 12.75 4.63958 12.75 4.25V2.83333C12.75 2.44375 12.4313 2.125 12.0417 2.125Z" fill="#64B3EC"/>
</g>
<defs>
<clipPath id="clip0_408_16235">
<rect width="17" height="17" fill="white"/>
</clipPath>
</defs>
</svg>
