<svg width="13" height="15" viewBox="0 0 13 15" fill="none" xmlns="http://www.w3.org/2000/svg">
<path fill-rule="evenodd" clip-rule="evenodd" d="M9.27081 1.16667H11.25C11.6854 1.16667 12.0416 1.52292 12.0416 1.95833C12.0416 2.39375 11.6854 2.75 11.25 2.75H1.74998C1.31456 2.75 0.958313 2.39375 0.958313 1.95833C0.958313 1.52292 1.31456 1.16667 1.74998 1.16667H3.72915L4.29123 0.604583C4.43373 0.462083 4.63956 0.375 4.8454 0.375H8.15456C8.3604 0.375 8.56623 0.462083 8.70873 0.604583L9.27081 1.16667ZM3.33331 14.625C2.46248 14.625 1.74998 13.9125 1.74998 13.0417V5.125C1.74998 4.25417 2.46248 3.54167 3.33331 3.54167H9.66665C10.5375 3.54167 11.25 4.25417 11.25 5.125V13.0417C11.25 13.9125 10.5375 14.625 9.66665 14.625H3.33331Z" fill="#64B3EC"/>
</svg>
