<svg width="17" height="17" viewBox="0 0 17 17" fill="none" xmlns="http://www.w3.org/2000/svg">
<path d="M7.26217 0.00012207C3.25792 0.00012207 0 3.25804 0 7.26229C0 11.2668 3.25792 14.5245 7.26217 14.5245C11.2666 14.5245 14.5243 11.2668 14.5243 7.26229C14.5243 3.25804 11.2666 0.00012207 7.26217 0.00012207ZM7.26217 13.1838C3.9971 13.1838 1.34071 10.5274 1.34071 7.26232C1.34071 3.99726 3.9971 1.34083 7.26217 1.34083C10.5272 1.34083 13.1836 3.99722 13.1836 7.26229C13.1836 10.5274 10.5272 13.1838 7.26217 13.1838Z" fill="#64B3EC"/>
<path d="M16.2943 15.3465L12.451 11.5031C12.1891 11.2412 11.7649 11.2412 11.5031 11.5031C11.2412 11.7648 11.2412 12.1894 11.5031 12.451L15.3464 16.2944C15.4774 16.4253 15.6488 16.4908 15.8204 16.4908C15.9918 16.4908 16.1634 16.4253 16.2943 16.2944C16.5562 16.0327 16.5562 15.6082 16.2943 15.3465Z" fill="#64B3EC"/>
</svg>
