<svg width="17" height="17" viewBox="0 0 17 17" fill="none" xmlns="http://www.w3.org/2000/svg">
<g clip-path="url(#clip0_408_16236)">
<path d="M12.75 11.39C12.2117 11.39 11.73 11.6025 11.3617 11.9354L6.31125 8.99583C6.34667 8.83291 6.375 8.67 6.375 8.5C6.375 8.33 6.34667 8.16708 6.31125 8.00416L11.305 5.09291C11.6875 5.44708 12.1904 5.66666 12.75 5.66666C13.9258 5.66666 14.875 4.7175 14.875 3.54166C14.875 2.36583 13.9258 1.41666 12.75 1.41666C11.5742 1.41666 10.625 2.36583 10.625 3.54166C10.625 3.71166 10.6533 3.87458 10.6888 4.0375L5.695 6.94875C5.3125 6.59458 4.80958 6.375 4.25 6.375C3.07417 6.375 2.125 7.32416 2.125 8.5C2.125 9.67583 3.07417 10.625 4.25 10.625C4.80958 10.625 5.3125 10.4054 5.695 10.0512L10.7383 12.9979C10.7029 13.1467 10.6817 13.3025 10.6817 13.4583C10.6817 14.5987 11.6096 15.5267 12.75 15.5267C13.8904 15.5267 14.8183 14.5987 14.8183 13.4583C14.8183 12.3179 13.8904 11.39 12.75 11.39Z" fill="#64B3EC"/>
</g>
<defs>
<clipPath id="clip0_408_16236">
<rect width="17" height="17" fill="white"/>
</clipPath>
</defs>
</svg>
