<svg width="9" height="2" viewBox="0 0 9 2" fill="none" xmlns="http://www.w3.org/2000/svg">
<path d="M8.13892 1.48438C7.9397 1.48438 7.76978 1.41406 7.62915 1.27344C7.48853 1.13281 7.41821 0.962891 7.41821 0.763672C7.41821 0.564453 7.48853 0.394531 7.62915 0.253906C7.76978 0.113281 7.9397 0.0429688 8.13892 0.0429688C8.34204 0.0429688 8.51196 0.115234 8.64868 0.259766C8.7854 0.400391 8.85376 0.568359 8.85376 0.763672C8.85376 0.958984 8.7854 1.12891 8.64868 1.27344C8.51196 1.41406 8.34204 1.48438 8.13892 1.48438ZM4.51196 1.49609C4.31274 1.49609 4.14282 1.42578 4.0022 1.28516C3.86157 1.14453 3.79126 0.974609 3.79126 0.775391C3.79126 0.572266 3.86353 0.402344 4.00806 0.265625C4.15259 0.125 4.32056 0.0546875 4.51196 0.0546875C4.69946 0.0546875 4.86548 0.123047 5.01001 0.259766C5.15845 0.396484 5.23267 0.568359 5.23267 0.775391C5.23267 0.974609 5.16235 1.14453 5.02173 1.28516C4.8811 1.42578 4.71118 1.49609 4.51196 1.49609ZM0.838135 1.49609C0.63501 1.49609 0.463135 1.42383 0.32251 1.2793C0.185791 1.13477 0.117432 0.966797 0.117432 0.775391C0.117432 0.580078 0.187744 0.412109 0.328369 0.271484C0.4729 0.126953 0.642822 0.0546875 0.838135 0.0546875C1.02563 0.0546875 1.19165 0.123047 1.33618 0.259766C1.48462 0.396484 1.55884 0.568359 1.55884 0.775391C1.55884 0.974609 1.48853 1.14453 1.3479 1.28516C1.20728 1.42578 1.03735 1.49609 0.838135 1.49609Z" fill="black"/>
</svg>
