<svg width="8" height="8" viewBox="0 0 8 8" fill="none" xmlns="http://www.w3.org/2000/svg">
<path d="M1.24565 0.615456C1.12105 0.615171 0.999162 0.65193 0.895492 0.721028C0.791821 0.790162 0.711003 0.888532 0.663339 1.00366C0.61564 1.11879 0.603269 1.2455 0.627689 1.36769C0.652145 1.48988 0.712358 1.60205 0.800663 1.68997L6.14117 7.03112C6.1996 7.08956 6.26897 7.13591 6.34534 7.16757C6.42166 7.1992 6.50351 7.21545 6.58615 7.21545C6.66879 7.21545 6.75064 7.1992 6.82697 7.16757C6.90333 7.13591 6.9727 7.08956 7.03113 7.03112C7.08956 6.97268 7.13594 6.9033 7.16757 6.82693C7.19919 6.75056 7.21548 6.66873 7.21548 6.58609C7.21548 6.50344 7.19919 6.42158 7.16757 6.34521C7.13594 6.26887 7.08956 6.19949 7.03113 6.14105L1.69063 0.79986C1.63234 0.741209 1.563 0.694715 1.4866 0.663054C1.41024 0.631393 1.32832 0.615207 1.24565 0.615456Z" fill="#26777E"/>
<path d="M6.58533 0.615455C6.50266 0.615348 6.4208 0.631607 6.34444 0.663268C6.26804 0.694893 6.1987 0.741351 6.14034 0.79986L0.799789 6.14105C0.741359 6.19949 0.695014 6.26887 0.663393 6.3452C0.631771 6.42158 0.615479 6.50344 0.615479 6.58609C0.615479 6.66873 0.631771 6.75056 0.663393 6.82693C0.695014 6.9033 0.741359 6.97268 0.799789 7.03112C0.858255 7.08956 0.92763 7.13591 1.00396 7.16757C1.08032 7.1992 1.16217 7.21545 1.24481 7.21545C1.32745 7.21545 1.40926 7.1992 1.48563 7.16757C1.56199 7.13591 1.63136 7.08956 1.68979 7.03112L7.03031 1.68997C7.11862 1.60204 7.17883 1.48988 7.20325 1.36769C7.22771 1.2455 7.2153 1.11879 7.16764 1.00366C7.11994 0.888532 7.03915 0.790161 6.93548 0.721027C6.83178 0.651929 6.70993 0.61517 6.58533 0.615455Z" fill="#26777E"/>
</svg>
