<svg width="184" height="191" viewBox="0 0 184 191" fill="none" xmlns="http://www.w3.org/2000/svg">
<path d="M18.5036 64.9149H6.62549V69.9344H18.5036V64.9149Z" fill="#EBEBEB"/>
<path d="M11.8781 71.2441H0V76.2636H11.8781V71.2441Z" fill="#DBDBDB"/>
<path d="M25.1288 71.2441H13.2507V76.2636H25.1288V71.2441Z" fill="#EBEBEB"/>
<path d="M11.8781 0.182007H0V5.20148H11.8781V0.182007Z" fill="#EBEBEB"/>
<path d="M137.772 129.916H149.65V124.897H137.772V129.916Z" fill="#DBDBDB"/>
<path d="M144.399 123.587H156.277V118.568H144.399V123.587Z" fill="#EBEBEB"/>
<path d="M56.744 30.4469H6.58508V33.4254H56.744V30.4469Z" fill="#EBEBEB"/>
<path d="M13.372 33.4254H10.3936V43.276H13.372V33.4254Z" fill="#EBEBEB"/>
<path d="M13.372 33.4254H10.3936V36.4712H13.372V33.4254Z" fill="#DBDBDB"/>
<path d="M52.9356 33.4254H49.9572V43.276H52.9356V33.4254Z" fill="#EBEBEB"/>
<path d="M52.9356 33.4254H49.9572V36.4712H52.9356V33.4254Z" fill="#DBDBDB"/>
<path d="M24.0419 30.4469L24.0419 11.4635H19.2601L19.2601 30.4469H24.0419Z" fill="#C7C7C7"/>
<path d="M24.0441 12.5331V10.4473H19.2623V12.5331H24.0441Z" fill="#DBDBDB"/>
<path d="M24.042 15.9852V15.2092H19.2603V15.9852H24.042Z" fill="#DBDBDB"/>
<path d="M24.6368 27.9564V25.8706H19.263V27.9564H24.6368Z" fill="#DBDBDB"/>
<path d="M27.3832 30.4447L27.3832 8.30334H24.0413L24.0413 30.4447H27.3832Z" fill="#DBDBDB"/>
<path d="M26.7013 18.9053V10.387H24.6962V18.9053H26.7013Z" fill="#EBEBEB"/>
<path d="M51.1488 28.0743L35.4019 12.5089L33.0525 14.8856L48.7995 30.451L51.1488 28.0743Z" fill="#C7C7C7"/>
<path d="M46.9889 24.8894L40.9307 18.901L39.5211 20.327L45.5793 26.3154L46.9889 24.8894Z" fill="#DBDBDB"/>
<path d="M33.0549 30.4491V13.6323L27.3805 13.6323L27.3805 30.4491H33.0549Z" fill="#A6A6A6"/>
<path d="M33.0526 28.6661V27.1006H27.3782V28.6661H33.0526Z" fill="#C7C7C7"/>
<path d="M33.0533 26.0696V25.4596H27.379V26.0696H33.0533Z" fill="#C7C7C7"/>
<path d="M19.2609 30.4487L19.2609 14.6411H15.3404L15.3404 30.4487H19.2609Z" fill="#A6A6A6"/>
<path d="M19.2612 28.7714V27.3H15.3407V28.7714H19.2612Z" fill="#C7C7C7"/>
<path d="M19.2595 19.3722V17.9009H15.339V19.3722H19.2595Z" fill="#C7C7C7"/>
<path d="M19.2633 20.9548V20.3851H15.3428V20.9548H19.2633Z" fill="#C7C7C7"/>
<path d="M181.378 181.668C181.378 186.728 141.55 190.828 92.423 190.828C43.2958 190.828 3.46741 186.728 3.46741 181.668C3.46741 176.608 43.2958 172.508 92.423 172.508C141.55 172.508 181.378 176.608 181.378 181.668Z" fill="#EBEBEB"/>
<path d="M1.35925 162.568L24.1241 162.456L46.8889 162.416L92.4231 162.344L137.957 162.416L160.722 162.456L183.487 162.568L160.722 162.676L137.957 162.716L92.4231 162.788L46.8889 162.716L24.1241 162.676L1.35925 162.568Z" fill="#263238"/>
<path d="M145.354 34.7937C145.179 34.1567 145.138 33.5197 145.129 32.8783C145.138 32.2413 145.179 31.6043 145.354 30.9629C145.533 31.5999 145.569 32.2368 145.578 32.8783C145.573 33.5152 145.533 34.1522 145.354 34.7937Z" fill="#E95B65"/>
<path d="M141.46 35.9151C140.989 35.4486 140.635 34.9193 140.312 34.3675C139.998 33.8113 139.715 33.2372 139.549 32.5957C140.02 33.0577 140.375 33.5915 140.698 34.1433C141.007 34.6995 141.294 35.2737 141.46 35.9151Z" fill="#E95B65"/>
<path d="M138.643 38.8353C138.002 38.6693 137.432 38.3823 136.876 38.0727C136.328 37.7453 135.795 37.3954 135.333 36.9199C135.974 37.0859 136.544 37.3685 137.1 37.6825C137.647 38.0099 138.181 38.3643 138.643 38.8353Z" fill="#E95B65"/>
<path d="M137.67 42.7737C137.033 42.9487 136.396 42.989 135.754 42.998C135.117 42.989 134.48 42.9487 133.844 42.7737C134.48 42.5943 135.117 42.5584 135.759 42.5494C136.391 42.5584 137.033 42.5988 137.67 42.7737Z" fill="#E95B65"/>
<path d="M138.791 46.6718C138.325 47.1427 137.795 47.4971 137.244 47.8201C136.687 48.1341 136.113 48.4167 135.472 48.5827C135.934 48.1117 136.468 47.7573 137.019 47.4343C137.575 47.1203 138.15 46.8377 138.791 46.6718Z" fill="#E95B65"/>
<path d="M141.711 49.4888C141.545 50.1302 141.258 50.6999 140.949 51.2561C140.626 51.8034 140.272 52.3372 139.796 52.7992C139.962 52.1578 140.245 51.5881 140.559 51.0318C140.886 50.4846 141.24 49.9508 141.711 49.4888Z" fill="#E95B65"/>
<path d="M145.65 50.4622C145.825 51.0991 145.865 51.7361 145.874 52.3775C145.865 53.0145 145.825 53.6515 145.65 54.2929C145.47 53.656 145.435 53.019 145.426 52.3775C145.43 51.7406 145.47 51.1036 145.65 50.4622Z" fill="#E95B65"/>
<path d="M149.543 49.3407C150.014 49.8072 150.369 50.3365 150.692 50.8883C151.006 51.4445 151.288 52.0186 151.454 52.6601C150.983 52.1981 150.629 51.6643 150.306 51.1125C149.992 50.5563 149.709 49.9822 149.543 49.3407Z" fill="#E95B65"/>
<path d="M152.356 46.4205C152.997 46.5865 153.567 46.8736 154.123 47.1831C154.671 47.5061 155.204 47.8604 155.666 48.3359C155.025 48.1699 154.455 47.8873 153.899 47.5733C153.352 47.2459 152.822 46.8915 152.356 46.4205Z" fill="#E95B65"/>
<path d="M153.334 42.4821C153.971 42.3072 154.608 42.2668 155.249 42.2578C155.886 42.2668 156.523 42.3072 157.16 42.4821C156.523 42.6615 155.886 42.6974 155.245 42.7064C154.608 42.6974 153.971 42.657 153.334 42.4821Z" fill="#E95B65"/>
<path d="M152.212 38.584C152.674 38.113 153.208 37.7586 153.76 37.4357C154.316 37.1217 154.89 36.8391 155.532 36.6731C155.07 37.1441 154.536 37.4985 153.984 37.8214C153.424 38.1354 152.854 38.418 152.212 38.584Z" fill="#E95B65"/>
<path d="M149.292 35.7671C149.458 35.1256 149.745 34.556 150.055 33.9997C150.378 33.4525 150.732 32.9187 151.207 32.4567C151.042 33.0981 150.759 33.6678 150.445 34.224C150.117 34.7713 149.763 35.3051 149.292 35.7671Z" fill="#E95B65"/>
<path d="M146.606 42.6301H69.2455V98.5666H146.606V42.6301Z" fill="#E95B65"/>
<path d="M77.1 98.5665V113.571L92.1494 98.5216L77.1 98.5665Z" fill="#E95B65"/>
<path d="M123.278 80.7103H92.5735L107.926 54.1201L123.278 80.7103Z" fill="white" stroke="#25757D" stroke-width="0.5"/>
<path d="M106.329 61.5283H109.527L109.312 73.3167H106.544L106.329 61.5283Z" fill="#E95B65"/>
<path d="M109.312 74.7925H106.544V77.5601H109.312V74.7925Z" fill="#E95B65"/>
<path d="M96.8415 86.8275H97.9899L99.995 92.3314H98.6941L98.268 91.0979H96.5544L96.1373 92.3314H94.8364L96.8415 86.8275ZM98.0571 90.2232L97.4157 88.2764L96.7563 90.2232H98.0571Z" fill="white"/>
<path d="M100.542 92.3314V86.8275H101.812V91.2145H104.476V92.3314H100.542Z" fill="white"/>
<path d="M108.939 91.2145V92.3314H105.073V86.8275H108.872V87.9444H106.347V89.012H108.518V90.0437H106.347V91.2145H108.939Z" fill="white"/>
<path d="M109.715 92.3314V86.8275H112.196C112.456 86.8275 112.694 86.8813 112.914 86.989C113.133 87.0967 113.322 87.2402 113.483 87.4151C113.645 87.5901 113.77 87.7919 113.86 88.0117C113.95 88.236 113.995 88.4603 113.995 88.6846C113.995 88.855 113.972 89.021 113.932 89.178C113.892 89.335 113.833 89.483 113.752 89.6221C113.676 89.7611 113.582 89.8867 113.47 89.9989C113.358 90.111 113.232 90.2052 113.093 90.2815L114.304 92.327H112.869L111.815 90.5506H110.985V92.327H109.715V92.3314ZM110.989 89.4472H112.151C112.299 89.4472 112.429 89.3754 112.537 89.2318C112.644 89.0883 112.698 88.9089 112.698 88.6846C112.698 88.4558 112.636 88.2764 112.514 88.1418C112.389 88.0072 112.254 87.94 112.111 87.94H110.985V89.4472H110.989Z" fill="white"/>
<path d="M119.019 87.9444H117.346V92.3314H116.076V87.9444H114.394V86.8275H119.023V87.9444H119.019Z" fill="white"/>
<path d="M119.777 90.1469V86.7737H121.015V90.1469H119.777ZM119.777 92.3314V91.0441H121.015V92.3314H119.777Z" fill="white"/>
<path d="M8.26697 48.6498C8.26697 54.8041 13.2595 59.7922 19.4094 59.7922C21.8945 59.7922 24.1911 58.9758 26.0482 57.5942L31.5073 58.9893L29.233 53.907C30.0763 52.3415 30.5518 50.5472 30.5518 48.6498C30.5518 42.4954 25.5593 37.5073 19.4094 37.5073C13.2595 37.5028 8.26697 42.4954 8.26697 48.6498Z" fill="white"/>
<path d="M8.26701 48.6498C8.30289 50.6998 8.84566 52.7497 9.95362 54.4812C10.2003 54.9298 10.5412 55.32 10.8418 55.7327C11.1917 56.105 11.5146 56.5043 11.9094 56.8317C12.654 57.536 13.5197 58.0967 14.4303 58.5542C15.3364 59.0297 16.3278 59.3078 17.3236 59.5142C17.826 59.5859 18.3284 59.6756 18.8398 59.6756C19.3466 59.707 19.858 59.6981 20.3604 59.6487C22.3834 59.4603 24.3437 58.6933 25.954 57.4687L26.0124 57.4238L26.0886 57.4418L31.5567 58.8009L31.3279 59.0701L29.0357 53.9923L28.9909 53.8981L29.0402 53.8039C29.8162 52.3415 30.2558 50.7088 30.3231 49.058C30.3635 47.4073 30.0988 45.7297 29.408 44.2225C28.7352 42.7108 27.7214 41.3471 26.4699 40.2571C25.2139 39.1671 23.6933 38.3911 22.0829 37.9694C20.4725 37.5523 18.759 37.4939 17.1128 37.8214C15.471 38.1578 13.91 38.8755 12.5733 39.8983C9.89979 41.9393 8.28046 45.2721 8.26701 48.6498ZM8.26701 48.6498C8.25803 45.2766 9.85045 41.9123 12.5419 39.8444C13.8696 38.7948 15.4306 38.0412 17.0903 37.6689C18.75 37.3055 20.495 37.3325 22.1502 37.7317C23.8054 38.1354 25.3799 38.9024 26.6942 40.0014C28.0085 41.0959 29.0761 42.4955 29.7803 44.061C31.1933 47.1875 31.1036 50.9869 29.4304 54.0102L29.4394 53.8218L31.6957 58.9131L31.8617 59.2899L31.4669 59.1867L26.0168 57.7558L26.1514 57.7288C24.4738 58.9579 22.4507 59.707 20.3873 59.864C19.8715 59.9044 19.3511 59.9044 18.8353 59.864C18.3149 59.8551 17.808 59.7564 17.2967 59.6756C16.2919 59.4469 15.2916 59.1508 14.3855 58.6529C13.4749 58.1774 12.6136 57.5943 11.869 56.8855C11.4743 56.5536 11.1513 56.1499 10.8014 55.7731C10.5009 55.3559 10.1644 54.9657 9.91774 54.5126C8.81874 52.7587 8.28943 50.6953 8.26701 48.6498Z" fill="#263238"/>
<path d="M17.9247 41.9302H20.5309L20.3559 51.5385H18.0996L17.9247 41.9302Z" fill="#E95B65"/>
<path d="M20.356 52.7406H18.0997V54.9969H20.356V52.7406Z" fill="#E95B65"/>
<path d="M49.8807 133.245L50.9528 139.651L58.1882 178.744H59.3545L54.0928 139.651L53.3168 133.245H49.8807Z" fill="#C7C7C7"/>
<path d="M53.3168 133.245H49.8807L50.9528 139.651H54.0928L53.3168 133.245Z" fill="#A6A6A6"/>
<path d="M27.1517 178.744H28.318L35.5579 139.651L36.6255 133.245H33.1939L32.4134 139.651L27.1517 178.744Z" fill="#C7C7C7"/>
<path d="M33.194 133.245L32.4135 139.651H35.5579L36.6255 133.245H33.194Z" fill="#A6A6A6"/>
<path d="M5.44104 178.744H6.60732L13.8427 139.651L14.9148 133.245H11.4833L10.7027 139.651L5.44104 178.744Z" fill="#C7C7C7"/>
<path d="M10.7028 139.651H13.8427L14.9148 133.245H11.4833L10.7028 139.651Z" fill="#A6A6A6"/>
<path d="M7.28931 136.255H60.3325V130.666H40.4744L33.8042 91.8425H9.31235L7.28931 136.255Z" fill="#C7C7C7"/>
<path d="M7.28931 136.255H10.1826L12.0666 91.8425H9.31235L7.28931 136.255Z" fill="#A6A6A6"/>
<path d="M110.191 180.529C109.24 180.865 81.1996 180.471 80.1499 179.82C80.0243 179.748 79.8359 174.383 79.8359 174.383C79.827 173.859 79.2707 170.548 79.2707 170.548C76.7633 164.524 70.7883 153.897 70.7883 153.897L89.1706 154.386L97.7921 171.477C97.7921 171.477 101.609 173.002 104.938 174.523C104.942 174.527 104.947 174.527 104.947 174.531C107.001 175.464 108.782 176.317 109.195 176.631C110.253 177.465 111.142 180.197 110.191 180.529Z" fill="#AD6359"/>
<path d="M110.28 180.587C109.294 180.915 81.0832 180.767 80.0111 180.076C79.5984 179.82 79.2665 170.642 79.2665 170.589L97.4694 170.481L97.4604 170.791C97.4604 170.791 108.231 175.671 109.33 176.55C110.415 177.429 111.272 180.264 110.28 180.587Z" fill="#A6A6A6"/>
<path d="M109.971 179.493C105.216 179.349 86.0216 179.228 81.3117 179.448C81.2713 179.448 81.2713 179.475 81.3117 179.479C86.0216 179.721 105.216 179.69 109.971 179.573C110.069 179.569 110.069 179.497 109.971 179.493Z" fill="#263238"/>
<path d="M99.4964 170.544C97.6259 170.185 95.3382 170.458 93.8983 171.782C93.8445 171.831 93.9163 171.912 93.9791 171.894C95.8272 171.324 97.5542 170.956 99.4875 170.777C99.6221 170.768 99.6265 170.571 99.4964 170.544Z" fill="#263238"/>
<path d="M100.842 171.365C98.9717 171.006 96.6841 171.279 95.2441 172.603C95.1903 172.652 95.2621 172.733 95.3249 172.715C97.173 172.145 98.9 171.777 100.833 171.598C100.968 171.589 100.977 171.391 100.842 171.365Z" fill="#263238"/>
<path d="M102.188 172.186C100.317 171.827 98.0296 172.1 96.5897 173.424C96.5359 173.473 96.6077 173.554 96.6705 173.536C98.5186 172.966 100.246 172.598 102.179 172.419C102.313 172.41 102.322 172.212 102.188 172.186Z" fill="#263238"/>
<path d="M98.2406 170.701L76.4582 170.885C76.4582 170.885 62.2744 136.968 60.8839 135.125C60.1886 134.205 28.0891 129.45 22.4775 124.696C15.1882 118.519 20.5666 107.013 20.5666 107.013L41.1559 106.932C41.1559 106.932 40.2363 111.355 41.0078 111.974C41.5147 112.387 71.2413 119.331 76.4582 125.812C83.9403 135.125 98.2406 170.701 98.2406 170.701Z" fill="#37474F"/>
<path d="M95.6076 167.153C94.4503 167.09 93.284 167.135 92.1267 167.13C90.9649 167.126 89.8076 167.126 88.6458 167.13C86.3267 167.135 84.0031 167.157 81.684 167.175C80.3697 167.188 79.0554 167.265 77.7456 167.319C77.6917 167.319 77.6917 167.395 77.7456 167.395C80.0692 167.502 82.3838 167.565 84.7118 167.547C87.0354 167.534 89.3545 167.493 91.6736 167.422C92.9834 167.381 94.3112 167.39 95.612 167.265C95.6883 167.26 95.6883 167.157 95.6076 167.153Z" fill="#263238"/>
<path d="M76.6153 160.962C76.0546 159.509 75.4446 158.074 74.8166 156.652C73.583 153.857 72.2777 151.089 70.9723 148.326C69.6087 145.442 68.2451 142.558 66.8724 139.678C66.1996 138.26 65.5267 136.847 64.8494 135.43C64.5892 134.883 64.3156 134.335 63.9298 133.864C63.5037 133.34 62.9609 132.985 62.3329 132.738C61.6735 132.483 60.9783 132.312 60.3009 132.124C59.5518 131.918 58.8027 131.711 58.0536 131.509C56.5509 131.106 55.0482 130.715 53.541 130.348C50.5221 129.603 30.1527 125.557 26.7839 124.099C24.1239 122.946 22.8096 120.672 22.361 119.452C21.3203 116.63 21.4056 113.62 21.7465 110.678C21.8362 109.92 21.9528 109.162 22.0695 108.404C22.0784 108.354 22.0022 108.336 21.9932 108.386C21.5401 111.36 21.0243 114.392 21.5132 117.397C21.9169 119.865 23.2671 122.439 25.4292 123.776C29.7445 126.441 53.1283 130.608 59.1616 132.249C59.9017 132.451 60.6418 132.653 61.382 132.864C62.0772 133.066 62.786 133.299 63.3198 133.811C63.7908 134.264 64.1048 134.851 64.3829 135.434C64.7148 136.121 65.0333 136.811 65.3608 137.498C66.7199 140.382 68.0881 143.262 69.4562 146.142C72.1431 151.794 74.8749 157.437 77.185 163.259C77.4631 163.959 77.7368 164.654 78.0238 165.349C78.0597 165.435 78.1943 165.399 78.1674 165.304C77.7233 163.829 77.1671 162.393 76.6153 160.962Z" fill="#263238"/>
<path d="M86.497 185.23C85.5415 185.553 58.2103 185.167 57.1696 184.499C56.0302 183.413 55.5458 157.629 55.5458 157.629L73.1297 157.486L74.2242 175.998C74.2242 175.998 78.019 177.577 81.325 179.152C81.3295 179.156 81.334 179.156 81.334 179.161C83.3749 180.125 85.1423 181.004 85.5505 181.327C86.6091 182.171 87.4524 184.916 86.497 185.23Z" fill="#AD6359"/>
<path d="M87.0578 185.248C86.071 185.575 57.8561 185.441 56.7885 184.75C56.3758 184.494 56.156 180.39 56.0349 175.42C56.0349 175.366 56.0349 175.316 56.0304 175.263L74.2333 175.146L74.2243 175.456C74.2243 175.456 84.9989 180.331 86.0979 181.211C87.1879 182.09 88.0447 184.925 87.0578 185.248Z" fill="#A6A6A6"/>
<path d="M86.7437 184.153C81.9889 184.014 62.7947 183.898 58.0847 184.122C58.0444 184.122 58.0444 184.149 58.0847 184.153C62.7947 184.395 81.9889 184.355 86.7437 184.234C86.8424 184.229 86.8469 184.158 86.7437 184.153Z" fill="#263238"/>
<path d="M76.2607 175.213C74.3902 174.854 72.1025 175.132 70.6626 176.456C70.6088 176.505 70.6805 176.586 70.7433 176.568C72.5914 175.994 74.3184 175.63 76.2518 175.451C76.3863 175.437 76.3953 175.24 76.2607 175.213Z" fill="#263238"/>
<path d="M77.6064 176.034C75.7359 175.675 73.4482 175.953 72.0083 177.277C71.9545 177.326 72.0262 177.407 72.089 177.389C73.9371 176.815 75.6641 176.451 77.5975 176.272C77.7365 176.254 77.741 176.056 77.6064 176.034Z" fill="#263238"/>
<path d="M78.9521 176.851C77.0816 176.492 74.7939 176.77 73.354 178.093C73.3002 178.142 73.3719 178.223 73.4347 178.205C75.2828 177.631 77.0098 177.268 78.9432 177.088C79.0822 177.075 79.0867 176.877 78.9521 176.851Z" fill="#263238"/>
<path d="M75.2067 175.33L55.2902 175.437C55.2902 175.437 55.6267 139.588 54.0746 137.605C52.0022 134.959 23.0068 135.021 16.7896 126.391C11.205 118.64 16.7941 106.937 16.7941 106.937H37.8992C37.8992 106.937 37.1905 110.498 35.8403 113.921C35.8403 113.921 63.36 120.012 69.7027 126.898C74.7177 132.348 75.2067 175.33 75.2067 175.33Z" fill="#37474F"/>
<path d="M39.698 112.418C39.0655 112.53 38.4375 112.786 37.8364 113.015C37.2039 113.253 36.5849 113.526 35.9793 113.822C34.7772 114.405 33.6333 115.074 32.5074 115.787C32.4715 115.809 32.5074 115.859 32.5433 115.841C33.732 115.226 34.9566 114.67 36.1857 114.141C36.7778 113.885 37.3699 113.634 37.9575 113.378C38.5541 113.122 39.1866 112.903 39.7518 112.584C39.828 112.539 39.7877 112.405 39.698 112.418Z" fill="#263238"/>
<path d="M38.3836 107.008C38.1324 108.009 37.9126 109.018 37.6255 110.009C37.4954 110.462 37.3653 110.929 37.1904 111.369C37.0469 111.741 36.8226 112.167 36.3919 112.248C35.894 112.342 35.7505 111.92 35.7909 111.508C35.8357 111.05 35.9523 110.588 36.0421 110.139C36.1452 109.619 36.7194 107.094 36.6342 107.004C36.6207 106.991 36.6028 106.991 36.5893 106.999C36.4951 107.053 36.2933 107.784 36.217 108.04C36.0779 108.516 35.9434 108.996 35.8223 109.48C35.7012 109.96 35.5845 110.444 35.4634 110.929C35.3737 111.288 35.2705 111.669 35.3647 112.041C35.4724 112.445 35.7954 112.651 36.1497 112.683C36.1318 112.714 36.1138 112.746 36.0959 112.782C36.051 112.88 36.0196 112.983 35.9838 113.087C35.9479 113.19 35.912 113.293 35.8806 113.401C35.8671 113.45 35.8582 113.504 35.8537 113.553C35.8492 113.611 35.8582 113.67 35.8537 113.728C35.8402 113.818 35.9658 113.872 36.0107 113.782C36.0376 113.733 36.0735 113.692 36.1049 113.643C36.1363 113.593 36.1587 113.531 36.1766 113.477C36.2125 113.378 36.2394 113.275 36.2663 113.176C36.2933 113.073 36.3247 112.974 36.3426 112.871C36.3561 112.808 36.3561 112.75 36.3605 112.687C36.5624 112.665 36.7687 112.598 36.9392 112.468C37.2397 112.243 37.4147 111.898 37.5358 111.552C37.6883 111.135 37.8049 110.705 37.9216 110.279C38.2131 109.22 38.4598 108.148 38.5585 107.053C38.572 106.932 38.4105 106.887 38.3836 107.008Z" fill="#263238"/>
<path d="M25.3257 109.458C25.236 109.956 25.1777 110.458 25.0611 110.947C24.9489 111.427 24.8188 111.911 24.6574 112.378C24.5048 112.826 24.3164 113.279 24.0473 113.67C23.7826 114.047 23.4328 114.374 23.0739 114.661C22.3697 115.222 21.5667 115.666 20.7189 115.971C20.2928 116.123 19.8532 116.253 19.4091 116.352C19.1759 116.406 18.9426 116.446 18.7093 116.473C18.512 116.5 18.3191 116.505 18.1486 116.603C18.0724 116.644 18.0858 116.76 18.1576 116.796C18.4581 116.944 18.8798 116.864 19.1983 116.828C19.5751 116.787 19.9474 116.724 20.3107 116.63C21.0464 116.442 21.7596 116.132 22.4145 115.747C23.056 115.365 23.6974 114.89 24.1729 114.311C24.6618 113.71 24.9355 113.001 25.1104 112.252C25.3212 111.355 25.4648 110.382 25.4154 109.458C25.4154 109.408 25.3347 109.399 25.3257 109.458Z" fill="#263238"/>
<path d="M58.2283 150.547C58.0309 147.433 57.7752 144.325 57.4522 141.221C57.3715 140.454 57.2952 139.691 57.201 138.924C57.1293 138.336 57.0306 137.735 56.8153 137.179C56.3577 136.013 55.3843 135.425 54.2091 135.125C52.823 134.775 51.3876 134.564 49.9746 134.335C48.5302 134.102 47.0858 133.891 45.637 133.689C42.7033 133.281 39.7697 132.904 36.8495 132.415C33.9428 131.926 31.0495 131.33 28.228 130.478C25.6353 129.697 22.9753 128.728 20.8984 126.929C16.4307 123.063 16.2647 116.581 16.812 111.153C16.8882 110.386 16.9824 109.624 17.0766 108.861C17.0811 108.821 17.0183 108.807 17.0138 108.848C16.6595 111.902 16.2468 114.975 16.5518 118.052C16.7985 120.569 17.5386 123.094 18.9965 125.18C20.5082 127.347 22.751 128.746 25.1688 129.724C27.8109 130.792 30.6054 131.509 33.3955 132.092C39.191 133.304 45.1032 133.819 50.9345 134.815C51.6522 134.936 52.37 135.066 53.0877 135.21C53.7426 135.34 54.4154 135.457 55.03 135.73C56.3532 136.322 56.7211 137.61 56.8826 138.942C57.2638 142.033 57.5195 145.141 57.7438 148.245C58.1969 154.503 58.4346 160.792 58.4211 167.063C58.4211 167.839 58.4032 169.342 58.3942 170.118C58.3942 170.185 58.4974 170.18 58.5019 170.113C58.6903 163.829 58.623 156.817 58.2283 150.547Z" fill="#263238"/>
<path d="M74.6953 154.364C74.2916 148.864 73.6905 143.383 72.8965 137.928C72.5108 135.291 72.1474 132.626 71.5912 130.016C71.349 128.881 71.0081 128.006 70.2904 127.068C69.5861 126.144 68.1597 124.983 67.1773 124.377C57.4927 118.38 37.0559 114.141 36.4324 113.993C36.3831 113.979 36.3651 114.055 36.4145 114.069C41.3757 115.294 58.6186 120.021 65.5983 124.054C66.6569 124.664 69.5188 126.176 70.5729 128.347C71.1067 129.45 71.3579 131.132 71.5598 132.335C71.7931 133.703 72.0129 135.075 72.2192 136.448C73.0311 141.822 73.6501 147.218 74.0763 152.632C74.5069 158.042 74.9241 166.767 74.9375 167.453C74.942 167.628 75.2067 167.619 75.2111 167.449C75.2739 161.909 75.099 159.886 74.6953 154.364Z" fill="#263238"/>
<path d="M73.8027 171.45C72.7351 171.36 71.6496 171.378 70.5775 171.347C69.5009 171.315 68.4244 171.288 67.3478 171.266C65.1947 171.216 63.0416 171.181 60.8929 171.149C59.6728 171.131 58.4527 171.181 57.2371 171.203C57.1877 171.203 57.1877 171.275 57.2371 171.279C59.3857 171.441 61.5344 171.557 63.692 171.598C65.8451 171.638 67.9982 171.652 70.1514 171.634C71.367 171.625 72.5961 171.661 73.8072 171.571C73.8745 171.557 73.879 171.454 73.8027 171.45Z" fill="#263238"/>
<path d="M58.8116 72.0876L53.1103 83.683C52.9039 84.015 53.0206 84.3469 53.3749 84.4187L59.6997 85.7689C60.0541 85.8452 60.5072 85.6343 60.718 85.3024L66.4193 73.7069C66.6256 73.375 66.509 73.043 66.1546 72.9712L59.8298 71.6211C59.4754 71.5448 59.0224 71.7511 58.8116 72.0876Z" fill="#37474F"/>
<path d="M59.5651 72.2402L53.8638 83.8357C53.6575 84.1676 53.7741 84.4995 54.1285 84.5713L60.4533 85.9215C60.8076 85.9978 61.2607 85.7869 61.4715 85.455L67.1728 73.8595C67.3792 73.5276 67.2625 73.1956 66.9082 73.1239L60.5834 71.7737C60.229 71.6974 59.7714 71.9082 59.5651 72.2402Z" fill="#263238"/>
<path d="M61.1801 73.1687C61.1083 73.4648 60.8122 73.6487 60.5207 73.5769C60.2246 73.5051 60.0407 73.2091 60.1125 72.9175C60.1842 72.6214 60.4803 72.4375 60.7719 72.5093C61.0634 72.5766 61.2473 72.8726 61.1801 73.1687Z" fill="#455A64"/>
<path d="M34.4679 86.2893C36.3474 94.691 42.1653 106.354 45.4713 107.134C47.0457 107.507 49.7775 108.511 52.2536 107.161C57.6544 104.21 63.1179 97.4811 64.8539 93.3184C65.4729 91.8381 58.7175 86.8276 57.3314 87.8369C54.0838 90.1963 49.7865 95.2921 49.3334 95.1575C47.6648 94.6506 42.255 87.644 38.487 82.7142C33.9161 76.7393 33.7188 82.943 34.4679 86.2893Z" fill="#AD6359"/>
<path d="M66.8186 85.3967C66.7199 82.0907 66.1906 81.2564 67.5901 78.4259C68.5097 76.5688 67.7157 75.1828 65.9708 76.4477C63.1179 78.5201 62.3463 82.8129 62.5078 84.3784L66.8186 85.3967Z" fill="#AD6359"/>
<path d="M64.1944 94.5789C64.1944 94.5789 66.5628 90.5283 66.8096 86.9981C66.98 84.5534 66.7557 79.1975 60.7315 75.0572C59.305 74.0748 56.5687 73.689 58.3226 76.1382C59.5652 77.8787 60.8795 78.6098 61.4178 79.7537C61.4178 79.7537 57.883 79.6729 56.9545 81.1442C56.5418 81.7992 55.4473 83.6203 54.8014 85.1589C54.8014 85.1589 55.0974 85.3877 55.5146 85.6299C55.5146 85.6299 54.6892 87.0339 55.3307 89.4293L64.1944 94.5789Z" fill="#AD6359"/>
<path d="M66.5942 84.6431C65.8182 83.6204 64.1405 81.4807 62.1579 80.2067C59.9554 78.7938 55.3307 76.6586 54.3034 78.2959C53.5498 79.498 55.2454 80.4669 55.2454 80.4669C55.2454 80.4669 53.1506 79.987 52.7065 81.2205C52.3028 82.3419 53.6575 83.0148 53.6575 83.0148C53.6575 83.0148 52.3342 82.943 52.1548 84.1003C51.935 85.4909 54.743 85.4146 55.7388 87.016C55.9631 87.3704 66.5942 84.6431 66.5942 84.6431Z" fill="#AD6359"/>
<path d="M61.0545 82.7771C60.1664 81.9337 57.6633 80.5387 55.2949 80.4355C55.2411 80.431 55.2097 80.4714 55.259 80.4849C57.8428 81.1532 60.108 82.2702 61.0411 82.7995C61.05 82.8084 61.0635 82.7905 61.0545 82.7771Z" fill="#263238"/>
<path d="M59.5608 84.9616C58.722 84.3112 56.0754 82.9879 53.6711 82.9655C53.6173 82.9655 53.5904 83.0058 53.6397 83.0148C56.367 83.6024 58.5874 84.504 59.5474 84.9795C59.5608 84.9885 59.5698 84.9706 59.5608 84.9616Z" fill="#263238"/>
<path d="M46.6824 91.3805L37.868 100.056C37.868 100.056 33.9117 87.0383 33.8309 82.8846C33.7367 78.206 36.15 79.1839 39.3842 82.2342C42.6139 85.2934 46.6824 91.3805 46.6824 91.3805Z" fill="#A6A6A6"/>
<path d="M37.5002 97.2208C37.7603 96.8754 40.4652 94.1257 41.0618 93.5426C41.6629 92.9594 44.0941 90.5461 44.767 89.9944C44.7984 89.972 44.8387 90.0034 44.8118 90.0348C44.2601 90.6987 41.8109 93.1389 41.2143 93.7489C40.6132 94.359 37.877 97.0145 37.536 97.2657C37.5046 97.2836 37.4822 97.2433 37.5002 97.2208Z" fill="#263238"/>
<path d="M41.6942 110.032C41.0751 110.633 14.5737 113.374 14.4437 113.199C14.0938 112.719 19.0594 87.8546 29.677 79.2915C31.5476 77.7843 34.6651 78.4168 36.0781 79.3273C36.7823 79.7804 39.0611 83.5259 39.6173 86.7018C40.1735 89.8732 42.0844 109.651 41.6942 110.032Z" fill="#FF9A6C"/>
<path d="M20.8312 91.9995L40.2856 92.1654C40.2362 91.6855 40.1869 91.2279 40.1376 90.7883L21.4726 90.6313C21.2528 91.0799 21.042 91.5375 20.8312 91.9995Z" fill="#37474F"/>
<path d="M19.6425 94.7492L40.5771 94.9197C40.5233 94.4532 40.4829 93.9911 40.4336 93.5426L20.2166 93.3766C20.0193 93.8296 19.8309 94.2917 19.6425 94.7492Z" fill="#37474F"/>
<path d="M37.0112 79.776C38.0519 80.8481 38.2268 84.163 36.0468 84.6564C33.8667 85.1498 31.1619 81.4716 30.951 79.5607C30.7357 77.6453 34.7056 77.4076 37.0112 79.776Z" fill="#37474F"/>
<path d="M36.1007 83.8086C34.5531 84.0329 32.1533 81.4895 31.2875 79.5248C31.2292 79.3902 32.2161 74.2945 32.3058 73.2628C32.3237 73.052 38.6396 75.398 38.6396 75.398C38.6396 75.398 37.8142 77.5018 37.6662 79.3005C37.6572 79.453 37.5989 83.5888 36.1007 83.8086Z" fill="#AD6359"/>
<path d="M32.5121 73.2762C32.6915 74.9673 33.4989 79.3857 37.0112 79.7805C37.24 79.8029 37.4508 79.8119 37.6482 79.7984C37.6616 79.5158 37.6661 79.3319 37.6706 79.3005C37.8142 77.5062 38.6395 75.4025 38.6395 75.4025C38.635 75.398 38.6306 75.398 38.6216 75.398C38.6036 75.389 38.5633 75.3755 38.5184 75.3576C38.5139 75.3531 38.505 75.3531 38.5005 75.3531C38.4511 75.3307 38.3973 75.3127 38.3255 75.2858C38.3031 75.2769 38.2807 75.2679 38.2538 75.2589C38.2089 75.241 38.1596 75.2275 38.1147 75.2096C38.0564 75.1871 38.0026 75.1647 37.9398 75.1423C37.8456 75.1109 37.7514 75.075 37.6482 75.0346C37.6123 75.0167 37.5764 75.0077 37.5405 74.9943C37.4643 74.9673 37.3925 74.9404 37.3118 74.909C37.0336 74.8103 36.7376 74.6982 36.4236 74.5861C36.3115 74.5457 36.1948 74.5008 36.0827 74.4649C35.9391 74.4156 35.7911 74.3618 35.6476 74.308C35.504 74.2586 35.356 74.2048 35.2125 74.1554C35.1945 74.151 35.1766 74.142 35.1542 74.1375C34.903 74.0478 34.6518 73.9626 34.4185 73.8773C34.3333 73.8504 34.2525 73.819 34.1718 73.7921C34.0103 73.7338 33.8533 73.6844 33.7008 73.6306C33.5886 73.5947 33.4855 73.5633 33.3823 73.5274C33.1401 73.4512 32.9293 73.3884 32.7633 73.3346C32.7139 73.3211 32.6691 73.3121 32.6242 73.2987C32.5839 73.2942 32.548 73.2852 32.5121 73.2762Z" fill="#263238"/>
<path d="M33.0281 65.3321C31.8663 67.4359 31.6868 74.1913 32.9832 75.9766C34.8627 78.5649 38.6262 79.5696 41.0036 77.1563C43.3048 74.8193 43.3855 66.0139 41.8693 64.3228C39.6444 61.8198 34.7461 62.219 33.0281 65.3321Z" fill="#AD6359"/>
<path d="M38.4198 70.6207C38.4153 70.6028 38.3839 70.6431 38.3839 70.6611C38.3794 71.1186 38.2987 71.6434 37.877 71.7825C37.8636 71.787 37.8636 71.8094 37.8815 71.8094C38.3929 71.7556 38.4916 71.0558 38.4198 70.6207Z" fill="#263238"/>
<path d="M38.0294 70.1273C37.2938 70.0421 37.1816 71.5179 37.859 71.5986C38.5318 71.6749 38.6485 70.1991 38.0294 70.1273Z" fill="#263238"/>
<path d="M41.0618 70.7911C41.0662 70.7732 41.0976 70.8181 41.0932 70.836C41.0393 71.2935 41.0573 71.8229 41.4565 72.0113C41.47 72.0157 41.4655 72.0382 41.452 72.0382C40.9541 71.9171 40.9406 71.2128 41.0618 70.7911Z" fill="#263238"/>
<path d="M41.5105 70.3471C42.2506 70.3515 42.1833 71.8318 41.497 71.8273C40.8241 71.8228 40.8914 70.3426 41.5105 70.3471Z" fill="#263238"/>
<path d="M38.6259 69.5306C38.4285 69.6024 38.2357 69.6338 38.0383 69.6787C37.8095 69.7325 37.6391 69.7998 37.4103 69.719C37.2892 69.6742 37.2084 69.4992 37.2398 69.3737C37.3161 69.0866 37.5763 68.952 37.8454 68.8713C38.137 68.786 38.3837 68.7995 38.6663 68.9161C38.9354 69.0372 38.8861 69.4409 38.6259 69.5306Z" fill="#263238"/>
<path d="M42.21 69.1404C42.0081 69.0911 41.8287 69.0103 41.6358 68.943C41.416 68.8668 41.2321 68.8264 41.0886 68.629C41.0123 68.5259 41.0392 68.333 41.1379 68.2478C41.3577 68.0504 41.6493 68.0773 41.9184 68.1625C42.21 68.2523 42.4118 68.3958 42.5778 68.6515C42.7393 68.8982 42.4746 69.2077 42.21 69.1404Z" fill="#263238"/>
<path d="M38.0693 74.2541C38.6659 74.0657 39.4061 74.1913 39.8726 74.2855C39.9264 74.281 39.9802 74.1823 39.9937 74.133V74.1285C39.9937 74.1105 40.0341 73.1596 40.0341 73.1596C40.1552 73.2313 40.7832 73.5678 40.7877 73.3883C40.8056 71.8767 40.8235 70.199 40.523 68.6918C40.514 68.6425 40.4378 68.647 40.4378 68.6963C40.366 70.1497 40.5454 71.603 40.4961 73.0609C40.2942 72.9667 39.9668 72.7962 39.7874 72.7873C39.738 72.7962 39.7963 73.8145 39.7694 73.967C39.7694 73.967 38.8678 73.6261 38.0783 74.0522C37.872 74.1644 37.7867 74.3438 38.0693 74.2541Z" fill="#263238"/>
<path d="M36.872 75.2095C36.9751 75.3216 37.0738 75.4742 37.2353 75.5011C37.3923 75.5235 37.5807 75.4652 37.7287 75.4203C37.7422 75.4158 37.7557 75.4338 37.7467 75.4428C37.6166 75.6087 37.3609 75.7029 37.1546 75.6491C36.9527 75.5997 36.863 75.4158 36.8226 75.223C36.8226 75.2005 36.8585 75.1916 36.872 75.2095Z" fill="#263238"/>
<path d="M39.1641 73.8459C38.738 73.81 37.3026 73.9626 37.4506 74.6533C37.5134 74.9539 38.0023 74.9225 38.433 74.6354C38.8591 74.3438 39.1641 73.8459 39.1641 73.8459Z" fill="#263238"/>
<path d="M38.2176 74.7564C37.8543 74.9269 37.5044 74.9045 37.4506 74.6533C37.4102 74.4649 37.4865 74.3169 37.63 74.2047C37.8857 74.2316 38.424 74.3438 38.2176 74.7564Z" fill="#FF9ABB"/>
<path d="M31.7314 71.0334C31.6328 70.4009 30.8209 63.6141 31.0765 62.9143C31.3098 62.2774 31.9961 62.6272 32.014 62.5914C32.032 62.551 32.1217 61.9589 32.5164 61.7794C32.8663 61.6224 33.3149 61.8871 33.3149 61.8871C33.3149 61.8871 33.4988 61.2726 33.916 61.147C34.3331 61.0214 34.6696 61.4027 34.6696 61.4027C34.6696 61.4027 34.8714 60.8105 35.3918 60.7253C35.9076 60.6401 36.1229 61.1066 36.1229 61.1066C36.1229 61.1066 36.3607 60.5235 36.7868 60.4562C37.213 60.3889 37.518 60.8733 37.518 60.8733C37.518 60.8733 37.8095 60.353 38.3119 60.4023C38.8233 60.4562 38.9444 61.0259 38.9444 61.0259C38.9444 61.0259 39.3033 60.5324 39.7788 60.5728C40.2498 60.6132 40.3484 61.2187 40.3484 61.2187C40.3484 61.2187 40.6041 60.7163 41.0392 60.8016C41.4788 60.8868 41.5102 61.5193 41.5102 61.5193C41.5102 61.5193 41.8242 60.972 42.3266 61.2008C43.0982 61.5552 42.7528 65.3949 42.7393 67.077C42.7393 67.077 42.6092 66.2562 42.2728 66.1844C41.9364 66.1171 41.6179 66.6419 40.9675 66.6913C39.3392 66.8214 38.4286 65.5878 37.1502 65.7089C35.9121 65.8255 35.2662 66.9559 34.6068 68.804C33.8711 70.9033 31.9692 72.5361 31.7314 71.0334Z" fill="#263238"/>
<path d="M33.3061 70.9213C33.3061 70.9213 32.2295 68.5304 31.1709 68.8758C30.1123 69.2212 30.6416 72.4913 31.6913 73.1237C32.7364 73.7562 33.342 72.8008 33.342 72.8008L33.3061 70.9213Z" fill="#AD6359"/>
<path d="M31.3459 69.8089C31.3279 69.8045 31.319 69.8269 31.3324 69.8358C32.0636 70.3068 32.3372 71.1143 32.4852 71.9262C32.3058 71.5898 32.0142 71.37 31.5701 71.5763C31.5477 71.5853 31.5612 71.6211 31.5836 71.6211C31.92 71.6122 32.1443 71.7154 32.3103 72.0114C32.4314 72.2222 32.4942 72.4734 32.5615 72.7067C32.5839 72.7829 32.7185 72.7695 32.7095 72.6843C32.7095 72.6798 32.7095 72.6708 32.705 72.6663C32.9203 71.6705 32.4045 70.114 31.3459 69.8089Z" fill="#263238"/>
<path d="M26.851 84.3559C25.7878 89.5683 25.3124 108.126 28.8247 111.001C32.3818 113.912 35.7057 112.818 36.1273 109.207C36.4772 106.224 32.8528 88.1642 31.5744 83.8759C30.3543 79.794 28.0935 78.2643 26.851 84.3559Z" fill="#AD6359"/>
<path d="M35.2707 95.5565L23.6752 99.8583C23.6752 99.8583 25.4022 86.3654 27.0305 82.5391C28.8606 78.2328 30.6639 80.1123 32.3594 84.2212C34.0506 88.3346 35.2707 95.5565 35.2707 95.5565Z" fill="#FF9A6C"/>
<path d="M24.4961 97.1175C24.8729 96.9067 28.4659 95.5072 29.2554 95.2201C30.0449 94.933 33.2521 93.7308 34.0865 93.5021C34.1223 93.4931 34.1448 93.5424 34.1089 93.5604C33.3329 93.9417 30.1032 95.1618 29.3047 95.4713C28.5108 95.7808 24.9222 97.0861 24.5095 97.1713C24.4781 97.1803 24.4736 97.131 24.4961 97.1175Z" fill="#263238"/>
<path d="M34.3063 95.8122C34.6473 95.6552 35.1855 95.4354 35.1855 95.4354C34.6966 93.7757 34.3781 92.0532 33.9654 90.3801C33.5438 88.671 33.1715 86.9575 32.7722 85.244C32.7678 85.2171 32.8036 85.2081 32.8126 85.235C33.0997 86.1904 33.3868 87.1414 33.6604 88.0969C33.6469 87.9713 33.6335 87.8457 33.62 87.7201C33.5707 87.276 33.5348 86.8274 33.472 86.3833C33.4675 86.3474 33.5213 86.3295 33.5303 86.3699C33.6335 86.8095 33.7277 87.2536 33.7725 87.7021C33.8039 88.0206 33.8129 88.3346 33.8174 88.6531C33.9744 89.2003 34.1314 89.7476 34.2705 90.3038C34.7056 92.0039 35.3111 93.8565 35.6117 95.5835C35.6117 95.5835 34.7639 95.8167 34.3288 95.893C34.2705 95.9064 34.257 95.8347 34.3063 95.8122Z" fill="#263238"/>
<path d="M26.1334 98.9477C25.3349 99.3155 24.532 99.6699 23.7201 99.9974L23.5048 100.083L23.5227 99.8404C23.6842 97.7814 23.9488 95.7315 24.2808 93.6905C24.4512 92.6722 24.6352 91.654 24.8639 90.6447C25.0792 89.6354 25.3349 88.6306 25.6444 87.6438L25.1555 90.6985L24.7069 93.7578C24.4109 95.7943 24.1238 97.8353 23.8098 99.8718L23.6124 99.7193C24.4512 99.4456 25.2901 99.1855 26.1334 98.9477Z" fill="#263238"/>
<path d="M24.7382 89.2542C24.792 89.6758 24.7965 90.093 24.81 90.5057C24.8189 90.9228 24.8234 91.3265 24.8414 91.7527C24.7427 91.5598 24.6889 91.3535 24.6485 91.1426C24.6036 90.9318 24.5947 90.721 24.5857 90.5101C24.5857 90.0885 24.6171 89.6668 24.7382 89.2542Z" fill="#263238"/>
<path d="M29.2824 108.139C28.4705 112.037 32.1712 113.571 34.5979 112.217C40.2992 109.027 45.3232 101.612 47.9383 95.7541C48.7144 94.0181 38.2134 90.4206 37.0471 92.0803C35.4188 94.4039 30.9331 100.226 29.2824 108.139Z" fill="#AD6359"/>
<path d="M40.797 86.8858C40.3484 87.433 40.0568 87.1998 40.0882 85.9438C40.1152 84.6698 41.2994 79.7356 39.5365 79.4709C37.7691 79.2018 36.2081 86.2129 36.3203 88.3122C36.4279 90.4115 37.3475 93.7623 37.3475 93.7623C37.9261 92.457 39.6307 89.4291 40.797 86.8858Z" fill="#AD6359"/>
<path d="M47.3506 96.9427C49.3378 93.085 50.9347 88.6621 50.2528 84.1765C50.1183 83.2973 49.6024 82.8577 49.6024 82.8577C49.3333 80.8436 48.3016 80.3636 48.3016 80.3636C47.4762 78.5649 46.3548 78.2195 46.3548 78.2195C46.3548 78.2195 46.0139 75.86 44.5515 75.8286C42.9143 75.7882 43.7127 79.1121 43.0354 81.2114C41.4833 86.0156 37.9352 92.4122 37.3475 93.7534L47.3506 96.9427Z" fill="#AD6359"/>
<path d="M44.9463 87.3928C45.3769 85.9708 45.8345 84.5847 46.0677 83.109C46.3234 81.4896 46.301 79.8927 46.3144 78.2644C46.3144 78.2151 46.3862 78.2106 46.3952 78.2599C46.8348 81.2115 46.2516 84.7059 45.0136 87.4152C44.9822 87.4825 44.9239 87.4646 44.9463 87.3928Z" fill="#263238"/>
<path d="M47.7095 88.7519C48.0504 87.3434 48.6335 84.8673 48.2522 80.3682C48.2522 80.3547 48.2747 80.3457 48.2791 80.3637C48.9161 83.248 48.7008 85.9887 47.7767 88.7654C47.7498 88.8551 47.687 88.8461 47.7095 88.7519Z" fill="#263238"/>
<path d="M49.2077 89.4561C49.6966 87.0383 49.6966 85.4549 49.5889 82.8711C49.5889 82.8577 49.6114 82.8532 49.6159 82.8666C50.0465 85.7913 49.8715 86.8993 49.2884 89.483C49.2705 89.5727 49.1897 89.5503 49.2077 89.4561Z" fill="#263238"/>
<path d="M42.7664 82.0054C43.0265 81.2025 43.188 80.3726 43.2149 79.5428C43.2374 78.704 43.2239 77.8562 43.3854 76.9994C43.4302 76.7886 43.493 76.5733 43.5917 76.3714C43.6904 76.1695 43.825 75.9677 44.0358 75.8376C44.2556 75.712 44.4709 75.6761 44.7087 75.6716C44.9419 75.6716 45.1752 75.7613 45.3591 75.9004C45.7269 76.183 45.9243 76.5912 46.0723 76.9859C46.2114 77.3897 46.3011 77.8068 46.3549 78.224C46.2383 77.8158 46.1216 77.4121 45.9467 77.0353C45.7807 76.6585 45.5609 76.2862 45.238 76.0709C45.0765 75.9632 44.8926 75.9094 44.7087 75.9094C44.5292 75.9094 44.3139 75.9587 44.1704 76.0484C43.8698 76.2503 43.7353 76.6675 43.6545 77.0577C43.4796 77.8606 43.4975 78.7084 43.4258 79.5562C43.354 80.4085 43.1297 81.2429 42.7664 82.0054Z" fill="#263238"/>
<path d="M37.222 83.0057C37.397 82.1624 37.6572 81.3281 38.0474 80.5475C38.2582 80.1663 38.496 79.776 38.8862 79.5114C39.0881 79.3813 39.3348 79.305 39.586 79.3409C39.8462 79.3723 40.0705 79.5472 40.205 79.7401C40.4831 80.1394 40.5549 80.5969 40.6132 81.032C40.6626 81.4716 40.6715 81.9112 40.6491 82.3508C40.5908 83.23 40.4562 84.0778 40.3441 84.9301C40.2947 85.3517 40.2274 85.7823 40.2544 86.1816C40.2678 86.3924 40.2903 86.6032 40.3351 86.7916C40.3575 86.8813 40.3934 86.98 40.4248 87.0159C40.4428 87.0338 40.4293 87.0204 40.4248 87.0249C40.4248 87.0249 40.4562 87.0159 40.4831 86.989C40.7478 86.7557 40.8958 86.3161 41.0842 85.9438C41.2636 85.5536 41.4341 85.1588 41.6001 84.7641C41.9365 83.9701 42.246 83.1717 42.5465 82.3642C42.8471 81.5613 43.1342 80.7449 43.2777 79.8971C43.2059 80.7584 42.9503 81.5927 42.6991 82.4181C42.4389 83.2434 42.1428 84.0509 41.8378 84.8583C41.6853 85.262 41.5283 85.6657 41.3578 86.0649C41.2771 86.2668 41.1874 86.4642 41.0887 86.6615C41.0394 86.7602 40.99 86.8589 40.9227 86.9621C40.8554 87.0608 40.7882 87.1505 40.6805 87.2402C40.6267 87.2806 40.5639 87.3299 40.4562 87.3478C40.3441 87.3658 40.223 87.2985 40.1736 87.2357C40.066 87.1056 40.039 86.989 40.0076 86.8724C39.9493 86.6436 39.9269 86.4238 39.909 86.204C39.8731 85.742 39.9404 85.3113 39.9807 84.8807C40.0705 84.0239 40.2409 83.1672 40.2992 82.3284C40.3261 81.9067 40.3261 81.4806 40.2813 81.0634C40.2364 80.6507 40.1512 80.2291 39.9493 79.9061C39.8462 79.7491 39.7071 79.6325 39.5322 79.6011C39.3572 79.5697 39.1643 79.6145 38.9984 79.7132C38.6619 79.9196 38.4108 80.2784 38.1954 80.6373C37.7783 81.3729 37.4777 82.1893 37.222 83.0057Z" fill="#263238"/>
<path d="M30.0897 105.313C30.2961 104.501 30.5607 103.707 30.8433 102.918C31.1214 102.128 31.4444 101.357 31.7808 100.59C32.1262 99.827 32.494 99.0734 32.9022 98.3423C33.3104 97.6111 33.7456 96.8934 34.2435 96.2161C34.0685 96.5973 33.8667 96.9607 33.6962 97.342C33.5078 97.7143 33.3329 98.0911 33.1534 98.4679C32.808 99.226 32.4537 99.9751 32.1172 100.738L30.0897 105.313Z" fill="#263238"/>
<path d="M42.6228 104.73C43.1476 103.904 43.668 103.084 44.1793 102.254C44.6862 101.424 45.1976 100.594 45.6731 99.7462C46.1755 98.9119 46.6375 98.0596 47.104 97.2028C47.575 96.3506 48.0056 95.4758 48.4587 94.6101C48.1312 95.5297 47.7589 96.4358 47.3328 97.3195C46.9156 98.2031 46.4446 99.0644 45.9646 99.9167C45.4622 100.755 44.9509 101.59 44.3946 102.397C43.8384 103.196 43.2598 103.985 42.6228 104.73Z" fill="#263238"/>
</svg>
